<?xml version="1.0" encoding="utf-8"?>
<!-- Generator: Adobe Illustrator 16.0.3, SVG Export Plug-In . SVG Version: 6.00 Build 0)  -->
<!DOCTYPE svg PUBLIC "-//W3C//DTD SVG 1.1//EN" "http://www.w3.org/Graphics/SVG/1.1/DTD/svg11.dtd">
<svg version="1.1" id="Layer_1" xmlns="http://www.w3.org/2000/svg" xmlns:xlink="http://www.w3.org/1999/xlink" x="0px" y="0px"
	 width="122.727px" height="65.584px" viewBox="0 0 122.727 65.584" enable-background="new 0 0 122.727 65.584"
	 xml:space="preserve">
<g id="XMLID_9_">
	<path fill="#F7D086" d="M60.037,61.278c-0.828,0-1.655-0.01-2.482-0.03c-2.956-0.072-5.923-0.278-8.82-0.611
		c-2.936-0.337-5.865-0.813-8.706-1.417c-0.021-0.005-0.092-0.023-0.112-0.028C28.19,56.024,10.468,51.238,5.756,41.416
		c-1.579-3.291-1.541-6.877,0.112-10.656C13.327,10.864,37.323,6.676,56.135,6.676c5.35,0,10.998,0.332,16.789,0.986
		c3.74,0.41,7.414,1.02,10.916,1.812c11.387,2.58,21.351,7.14,29.613,13.552c0.046,0.036,0.09,0.076,0.13,0.118
		c3.148,3.325,4.744,6.942,4.742,10.75c0,0.093-0.012,0.185-0.034,0.274c-5.063,20.555-28.784,23.833-46.105,26.225
		c-1.351,0.187-2.671,0.369-3.948,0.554C65.461,61.17,62.727,61.278,60.037,61.278z"/>
	<path fill="#4D100F" d="M56.135,7.826c5.843,0,11.529,0.399,16.66,0.979c3.646,0.399,7.253,0.99,10.791,1.791
		c10.611,2.404,20.603,6.696,29.162,13.339c2.852,3.012,4.429,6.382,4.427,9.959c-5.253,21.327-31.253,23.327-49.103,25.916
		c-2.672,0.212-5.354,0.319-8.035,0.319c-0.818,0-1.636-0.01-2.454-0.03c-2.915-0.071-5.825-0.271-8.717-0.604
		c-2.892-0.332-5.765-0.798-8.599-1.399C25.922,54.221-0.078,47.221,6.922,31.221C13.903,12.604,35.93,7.827,56.135,7.826
		 M56.138,5.526v2.3l-0.001-2.3C28.667,5.527,10.915,14.112,4.79,30.356c-1.769,4.079-1.793,7.967-0.071,11.557
		C9.66,52.212,27.688,57.08,39.617,60.302l0.051,0.014c0.041,0.011,0.081,0.021,0.122,0.029c2.877,0.61,5.842,1.093,8.814,1.435
		c2.93,0.337,5.932,0.546,8.923,0.619c0.836,0.021,1.673,0.03,2.51,0.03c2.72,0,5.484-0.109,8.217-0.326
		c0.05-0.004,0.1-0.01,0.148-0.017c1.275-0.186,2.593-0.367,3.94-0.554c17.647-2.438,41.816-5.776,47.065-27.089
		c0.044-0.18,0.066-0.364,0.066-0.548c0.002-4.112-1.699-7.996-5.057-11.542c-0.08-0.085-0.167-0.164-0.26-0.235
		c-8.396-6.517-18.512-11.147-30.064-13.765c-3.545-0.802-7.262-1.419-11.049-1.834C67.219,5.86,61.528,5.526,56.138,5.526
		L56.138,5.526z"/>
</g>
<g>
	<defs>
		<path id="XMLID_8_" d="M108.115,31.843c0,3.733-3.336,5.588-8.443,8.467c-3.361,1.894-6.916,4.44-11.875,5.731
			c-4.03,1.05-8.516,0.87-13.31,1.41c-4.282,0.481-8.624,3.41-13.316,3.41c-4.693,0-9.398,0.301-13.68-0.181
			c-4.795-0.54-9.175-2.605-13.206-3.655c-4.959-1.291-7.898-5.463-11.259-7.357c-5.104-2.878-10.42-4.093-10.42-7.825
			c0-3.733,3.059-8.954,8.167-11.833c3.361-1.895,8.715-1.455,13.673-2.745c4.031-1.05,8.35-2.849,13.144-3.388
			c4.281-0.481,8.889,1.013,13.582,1.013c4.692,0,8.931,1.787,13.212,2.269c4.795,0.54,9.43-0.731,13.461,0.317
			c4.959,1.292,9.326,2.491,12.688,4.387C105.637,24.74,108.115,28.11,108.115,31.843z"/>
	</defs>
	<use xlink:href="#XMLID_8_"  overflow="visible" fill="#FA423B"/>
	<clipPath id="XMLID_10_">
		<use xlink:href="#XMLID_8_"  overflow="visible"/>
	</clipPath>
	<path clip-path="url(#XMLID_10_)" fill="#A82729" d="M53.662,51.92c-6.287-0.781-11.263-0.012-15.638-5.442
		c-1.146-1.423-2.322-2.614-4.141-3.135c-3.715-1.063-5.722-2.569-8.316-5.263c-2.504-2.601-7.358-2.142-9.394-4.981
		c-2.765-3.856,4.609-11.352,7.36-13.283c2.094-1.47,0.098-4.939-2.019-3.453c-6.731,4.727-15.462,17.757-4.02,22.219
		c3.37,1.313,5.298,2.295,7.689,5.128c2.844,3.37,7.795,2.564,10.487,6.279c4.37,6.03,11.429,5.116,17.991,5.932
		C56.217,56.237,56.187,52.233,53.662,51.92z"/>
	<path clip-path="url(#XMLID_10_)" fill="#A82729" d="M108.819,30.02c-0.57-1.878-1.603-3.549-2.911-5.027
		c-0.796-0.977-1.708-1.881-2.686-2.717c-1.689-1.546-3.518-2.783-5.256-3.544c-0.209-0.092-0.414-0.137-0.615-0.161
		c-0.423-0.186-0.847-0.359-1.271-0.514c-0.331-0.121-0.634-0.146-0.907-0.11c-4.908-1.594-10.104-1.628-15.196-3.059
		c-2.488-0.699-3.543,3.16-1.063,3.857c7.92,2.226,16.261,1.871,22.307,7.229c0.014,0.013,0.025,0.027,0.039,0.04
		c1.857,2.464,2.486,6.226,2.724,9.293c-1.284,1.467-3.317,2.699-5.245,3.697c-4.403,1.41-8.898,2.206-12.757,4.642
		c-1.911,0.913-3.628,2.192-5.587,2.991c-1.009,0.411-1.712,1.314-1.396,2.46c0.264,0.958,1.449,1.81,2.46,1.397
		c0.438-0.179,0.861-0.386,1.279-0.603c-0.567,1.396,0.466,3.35,2.276,2.727c1.906-0.655,3.051-1.574,4.365-3.103
		c0.209-0.242,0.443-0.463,0.672-0.69c0.678-0.277,1.356-0.604,2.044-0.954c3.572-1.818,7.064-3.661,10.606-5.551
		c0.748-0.398,1.025-1.039,0.989-1.677c0.265-0.17,0.526-0.347,0.786-0.526c0.355,0.288,0.805,0.465,1.263,0.498
		c0.86,0.47,2.035,0.413,2.714-0.646C110.406,36.917,110.207,33.368,108.819,30.02z"/>
	<path clip-path="url(#XMLID_10_)" fill="#A82729" d="M75.789,23.806c-2.086,0.675-4.339,0.786-6.33,1.757
		c-0.494,0.24-0.973,0.511-1.451,0.779c-0.594-1.812-3.791-1.564-3.9,0.729c-0.119,2.495,1.438,4.416,4.062,3.608
		c1.056-0.325,2.009-0.985,2.976-1.501c1.707-0.912,3.877-0.924,5.708-1.516C79.296,26.873,78.25,23.01,75.789,23.806z"/>
	<path clip-path="url(#XMLID_10_)" fill="#A82729" d="M68.989,42.335c-0.589-1.679-1.731-2.745-3.192-3.7
		c-1.07-0.698-2.747-1.33-3.224-2.63c-0.88-2.401-4.747-1.364-3.857,1.063c0.644,1.755,1.784,2.907,3.312,3.938
		c0.482,0.325,1.188,0.647,1.814,1.042c-0.235,0.128-0.471,0.258-0.71,0.385c-2.279,1.209-0.259,4.661,2.019,3.453
		c0.816-0.433,1.527-0.903,2.441-1.091C68.607,44.587,69.333,43.314,68.989,42.335z"/>
	<path clip-path="url(#XMLID_10_)" fill="#A82729" d="M45.71,37.773c-1.812,1.147-3.663,1.414-5.774,1.172c-1.085-0.124-2,1.004-2,2
		c0,1.185,0.917,1.876,2,2c2.752,0.315,5.444-0.23,7.792-1.719C49.901,39.851,47.896,36.388,45.71,37.773z"/>
	<path clip-path="url(#XMLID_10_)" fill="#A82729" d="M38.752,26.57c-1.857-2.105-4.544-3.081-6.619-4.906
		c-1.928-1.696-4.769,1.121-2.828,2.828c0.501,0.441,1.043,0.834,1.601,1.208c-1.389-0.482-2.772-0.979-4.133-1.54
		c-2.385-0.982-3.414,2.889-1.063,3.857c3.203,1.319,6.522,2.313,9.775,3.494c1.351,0.49,2.269-0.486,2.407-1.602
		C39.055,29.445,39.854,27.819,38.752,26.57z"/>
	<path clip-path="url(#XMLID_10_)" fill="#A82729" d="M55.118,23.631c-3.487-1.121-7.093-1.811-10.537-3.07
		c-2.428-0.888-3.465,2.979-1.063,3.857c0.176,0.064,0.357,0.113,0.535,0.175c-0.283,1.156,0.329,2.531,1.857,2.466
		c2.096-0.089,4.089,0.573,5.956,1.482c1.188,0.579,2.295-0.055,2.781-0.958C56.666,27.634,57.355,24.35,55.118,23.631z"/>
	<path clip-path="url(#XMLID_10_)" fill="#A82729" d="M89.617,25.509c-0.807,2.154-4.199,3.229-5.719,4.853
		c-2.646,2.829-0.188,5.686,2.445,7.246c2.225,1.319,4.235-2.14,2.02-3.453c-0.544-0.323-1.053-0.638-1.514-1.071
		c-0.015-0.013-0.016-0.012-0.026-0.022c0.405-0.572,1.275-1.027,1.811-1.396c2.002-1.374,3.958-2.738,4.841-5.094
		C94.383,24.151,90.515,23.116,89.617,25.509z"/>
	<use xlink:href="#XMLID_8_"  overflow="visible" fill="none" stroke="#4D100F" stroke-width="1.5" stroke-miterlimit="10"/>
</g>
<g id="Green_pepper_3_">
	<g>
		<defs>
			<path id="XMLID_5_" d="M95.034,25.849c-0.72-0.516-1.132-0.912-1.587-1.659c-1.982,3.731-4.293,7.455-8.366,9.016
				c0.044,1.137,0.534,2.53,1.37,3.534C90.81,35.084,93.475,29.963,95.034,25.849z"/>
		</defs>
		<use xlink:href="#XMLID_5_"  overflow="visible" fill="#80C41C"/>
		<clipPath id="XMLID_12_">
			<use xlink:href="#XMLID_5_"  overflow="visible"/>
		</clipPath>
		<path opacity="0.2" clip-path="url(#XMLID_12_)" fill="#FFFFFF" d="M93.837,25.939c-1.482,4.416-5.147,7.691-9.695,8.551
			c-2.558,0.482-1.472,4.375,1.073,3.895c5.946-1.123,10.611-5.693,12.518-11.371C98.563,24.537,94.662,23.483,93.837,25.939z"/>
		
			<use xlink:href="#XMLID_5_"  overflow="visible" fill="none" stroke="#4D100F" stroke-linecap="round" stroke-linejoin="round" stroke-miterlimit="10"/>
	</g>
</g>
<g id="Green_pepper_2_">
	<g>
		<defs>
			<path id="XMLID_4_" d="M46.588,40.209c-0.032-0.673,0.011-1.105,0.242-1.729c-3.163,0.576-6.475,0.952-9.327-0.743
				c-0.658,0.563-1.258,1.513-1.464,2.484C39.083,42.042,43.396,41.218,46.588,40.209z"/>
		</defs>
		<use xlink:href="#XMLID_4_"  overflow="visible" fill="#80C41C"/>
		<clipPath id="XMLID_14_">
			<use xlink:href="#XMLID_4_"  overflow="visible"/>
		</clipPath>
		<path opacity="0.2" clip-path="url(#XMLID_14_)" fill="#FFFFFF" d="M45.969,39.537c-3.335,1.197-7.019,0.554-9.676-1.755
			c-1.494-1.3-3.305,1.185-1.818,2.478c3.474,3.02,8.402,3.648,12.69,2.109C49.035,41.697,47.824,38.871,45.969,39.537z"/>
		
			<use xlink:href="#XMLID_4_"  overflow="visible" fill="none" stroke="#4D100F" stroke-linecap="round" stroke-linejoin="round" stroke-miterlimit="10"/>
	</g>
</g>
<g id="Green_pepper_1_">
	<g>
		<defs>
			<path id="XMLID_3_" d="M36.054,29.419c0.345-0.704,0.631-1.122,1.218-1.628c-3.548-1.188-7.138-2.663-9.095-5.993
				c-0.986,0.205-2.132,0.837-2.887,1.713C27.371,27.076,32.233,28.656,36.054,29.419z"/>
		</defs>
		<use xlink:href="#XMLID_3_"  overflow="visible" fill="#80C41C"/>
		<clipPath id="XMLID_16_">
			<use xlink:href="#XMLID_3_"  overflow="visible"/>
		</clipPath>
		<path opacity="0.2" clip-path="url(#XMLID_16_)" fill="#FFFFFF" d="M35.8,28.387c-4.074-0.651-7.469-3.375-8.883-7.222
			c-0.794-2.163-4.036-0.646-3.245,1.506c1.849,5.03,6.521,8.438,11.758,9.274C37.714,32.31,38.066,28.748,35.8,28.387z"/>
		
			<use xlink:href="#XMLID_3_"  overflow="visible" fill="none" stroke="#4D100F" stroke-linecap="round" stroke-linejoin="round" stroke-miterlimit="10"/>
	</g>
</g>
<g id="Green_pepper">
	<g>
		<defs>
			<path id="XMLID_1_" d="M76.301,24.44c-0.228-0.714-0.307-1.19-0.237-1.928c-3.232,1.528-6.683,2.886-10.235,1.886
				c-0.544,0.793-0.916,1.986-0.857,3.09C68.765,28.569,73.162,26.442,76.301,24.44z"/>
		</defs>
		<use xlink:href="#XMLID_1_"  overflow="visible" fill="#80C41C"/>
		<clipPath id="XMLID_18_">
			<use xlink:href="#XMLID_1_"  overflow="visible"/>
		</clipPath>
		<path opacity="0.2" clip-path="url(#XMLID_18_)" fill="#FFFFFF" d="M75.443,23.896c-3.239,2.246-7.383,2.615-10.902,0.898
			c-1.979-0.966-3.21,2.224-1.24,3.185c4.602,2.245,10.076,1.504,14.241-1.384C79.357,25.335,77.244,22.647,75.443,23.896z"/>
		
			<use xlink:href="#XMLID_1_"  overflow="visible" fill="none" stroke="#4D100F" stroke-linecap="round" stroke-linejoin="round" stroke-miterlimit="10"/>
	</g>
	<g>
		<defs>
			<path id="XMLID_2_" d="M42.758,19.865c0.506-0.727,0.761-1.238,0.94-2.095c3.118,2.853,6.541,5.589,10.901,5.696
				c0.338,1.086,0.343,2.563-0.108,3.788C49.83,27.154,45.605,23.221,42.758,19.865z"/>
		</defs>
		<use xlink:href="#XMLID_2_"  overflow="visible" fill="#80C41C"/>
		<clipPath id="XMLID_20_">
			<use xlink:href="#XMLID_2_"  overflow="visible"/>
		</clipPath>
		<path opacity="0.2" clip-path="url(#XMLID_20_)" fill="#FFFFFF" d="M43.917,19.55c2.875,3.666,7.425,5.525,11.998,4.813
			c2.571-0.401,2.851,3.63,0.292,4.029c-5.979,0.932-11.904-1.814-15.601-6.526C38.994,19.811,42.317,17.512,43.917,19.55z"/>
		
			<use xlink:href="#XMLID_2_"  overflow="visible" fill="none" stroke="#4D100F" stroke-linecap="round" stroke-linejoin="round" stroke-miterlimit="10"/>
	</g>
</g>
<g>
	<defs>
		<path id="XMLID_7_" d="M57.886,36.093c0.522-0.325,0.825-0.582,1.173-1.08c1.208,2.675,2.644,5.358,5.396,6.621
			c-0.081,0.786-0.482,1.729-1.106,2.388C60.402,42.68,58.784,39.014,57.886,36.093z"/>
	</defs>
	<use xlink:href="#XMLID_7_"  overflow="visible" fill="#80C41C"/>
	<clipPath id="XMLID_21_">
		<use xlink:href="#XMLID_7_"  overflow="visible"/>
	</clipPath>
	<path opacity="0.2" clip-path="url(#XMLID_21_)" fill="#FFFFFF" d="M58.712,36.209c0.831,3.126,3.226,5.559,6.337,6.357
		c1.751,0.448,0.825,3.097-0.917,2.65c-4.069-1.043-7.099-4.418-8.167-8.437C55.5,35.027,58.25,34.471,58.712,36.209z"/>
	
		<use xlink:href="#XMLID_7_"  overflow="visible" fill="none" stroke="#4D100F" stroke-linecap="round" stroke-linejoin="round" stroke-miterlimit="10"/>
</g>
<g>
	<defs>
		<path id="XMLID_17_" d="M80.79,38.235c-0.4,1.687-3.921,2.979-7.678,2.087c-3.757-0.893-6.269-3.616-5.868-5.303
			s3.727-2.393,7.484-1.5C78.484,34.412,81.19,36.55,80.79,38.235z"/>
	</defs>
	<use xlink:href="#XMLID_17_"  overflow="visible" fill="#6D0E18"/>
	<clipPath id="XMLID_22_">
		<use xlink:href="#XMLID_17_"  overflow="visible"/>
	</clipPath>
	<path clip-path="url(#XMLID_22_)" fill="#9E1F20" d="M87.623,30.168c-0.125-2.567-4.125-2.579-4,0
		c0.135,2.785-3.671,10.52-7.565,8.232c-2.744-1.61-5.169-3.058-8.39-3.583c-2.522-0.411-3.604,3.442-1.063,3.857
		c4.94,0.807,8.507,5.739,13.501,3.371C84.482,39.969,87.859,35.054,87.623,30.168z"/>
	<use xlink:href="#XMLID_17_"  overflow="visible" fill="none" stroke="#4D100F" stroke-miterlimit="10"/>
</g>
<g>
	<defs>
		<path id="XMLID_13_" d="M53.778,31.462c0.28,1.299-0.725,3.243-2.383,4.361c-1.151,0.776-3.089,0.368-4.79,0.735
			c-1.701,0.366-3.082,0.262-4.451,0.028c-1.971-0.336-3.216-0.566-3.496-1.865c-0.28-1.299,0.113-2.979,1.771-4.098
			c1.151-0.776,2.996-0.56,4.697-0.927c1.701-0.366,3.225-0.925,4.594-0.691C51.691,29.342,53.498,30.163,53.778,31.462z"/>
	</defs>
	<use xlink:href="#XMLID_13_"  overflow="visible" fill="#6D0E18"/>
	<clipPath id="XMLID_23_">
		<use xlink:href="#XMLID_13_"  overflow="visible"/>
	</clipPath>
	<path clip-path="url(#XMLID_23_)" fill="#9E1F20" d="M53.422,34.896c-2.683-0.17-5.043-0.788-7.764-0.535
		c-1.555,0.145-3.116,0.229-4.14-1.2c-0.785-1.096,0.333-2.23,1.2-2.785c2.166-1.384,0.162-4.848-2.019-3.453
		c-3.097,1.979-4.838,6.203-1.927,9.214c1.655,1.712,3.532,2.313,5.885,2.299c1.351-0.008,2.67-0.245,4.027-0.206
		c1.575,0.045,3.152,0.566,4.737,0.667C55.999,39.06,55.983,35.059,53.422,34.896z"/>
	<use xlink:href="#XMLID_13_"  overflow="visible" fill="none" stroke="#4D100F" stroke-miterlimit="10"/>
</g>
<g>
	<defs>
		<path id="XMLID_15_" d="M67.077,20.142c0,1.31-2.413,2.077-5.906,2.077c-3.493,0-5.993-0.768-5.993-2.077s2.5-2.672,5.993-2.672
			C64.664,17.47,67.077,18.832,67.077,20.142z"/>
	</defs>
	<use xlink:href="#XMLID_15_"  overflow="visible" fill="#6D0E18"/>
	<clipPath id="XMLID_24_">
		<use xlink:href="#XMLID_15_"  overflow="visible"/>
	</clipPath>
	<path clip-path="url(#XMLID_24_)" fill="#9E1F20" d="M66.988,16.311c-1.762,2.619-6.223,4.5-9.357,3.87
		c-2.519-0.506-3.591,3.35-1.063,3.857c5.031,1.011,11.034-1.483,13.875-5.708C71.887,16.183,68.42,14.183,66.988,16.311z"/>
	<use xlink:href="#XMLID_15_"  overflow="visible" fill="none" stroke="#4D100F" stroke-miterlimit="10"/>
</g>
<g>
	<defs>
		<path id="XMLID_11_" d="M29.543,33.633c-0.805,1.013-1.835,2.072-3.563,1.994c-1.285-0.056-2.915-0.233-4.486-0.561
			c-1.558-0.341-3.121-1.052-4.422-1.541c-1.76-0.658-2.616-1.813-2.556-3.13c0.039-1.276,0.851-3.192,3.414-3.929
			c1.848-0.539,4.582-0.595,6.819,0.039c2.259,0.634,3.17,2.49,4.191,3.604C30.344,31.68,30.329,32.647,29.543,33.633z"/>
	</defs>
	<use xlink:href="#XMLID_11_"  overflow="visible" fill="#6D0E18"/>
	<clipPath id="XMLID_25_">
		<use xlink:href="#XMLID_11_"  overflow="visible"/>
	</clipPath>
	<path clip-path="url(#XMLID_25_)" fill="#9E1F20" d="M30.501,29.559c-2.183-4.21-6.213-7.143-11.072-7.063
		c-2.577,0.042-2.581,4.042,0,4c2.432-0.04,4.653,1.011,6.204,2.874c0.731,0.879,2.129,2.542,1.455,3.761
		c-0.628,1.136-2.088,1.496-3.242,1.747c-2.52,0.548-1.451,4.404,1.063,3.857C29.25,37.79,32.845,34.08,30.501,29.559z"/>
	<use xlink:href="#XMLID_11_"  overflow="visible" fill="none" stroke="#4D100F" stroke-miterlimit="10"/>
</g>
<g>
	<defs>
		<path id="XMLID_19_" d="M104.877,31.695c0.221,1.644-2.346,2.432-5.123,3.24c-2.813,0.759-5.209,1.406-6.347,0.3
			c-1.142-1.038-0.068-4.276,3.724-5.642C100.916,28.23,104.736,30.065,104.877,31.695z"/>
	</defs>
	<use xlink:href="#XMLID_19_"  overflow="visible" fill="#6D0E18"/>
	<clipPath id="XMLID_26_">
		<use xlink:href="#XMLID_19_"  overflow="visible"/>
	</clipPath>
	<path clip-path="url(#XMLID_26_)" fill="#9E1F20" d="M101.318,26.498c-3.507-0.066-7.29,1.62-9.283,4.551
		c-2.279,3.352,0.199,7.107,3.27,8.656c2.296,1.159,4.322-2.291,2.018-3.453c-1.628-0.822-2.91-2.149-1.322-3.779
		c1.298-1.333,3.502-2.009,5.318-1.975C103.899,30.547,103.895,26.547,101.318,26.498z"/>
	<use xlink:href="#XMLID_19_"  overflow="visible" fill="none" stroke="#4D100F" stroke-miterlimit="10"/>
</g>
<path fill="#FBAA55" d="M117.175,33.894c0.001-2.403-0.726-4.71-2.057-6.88c-1.718,11.177-9.817,18.739-23.405,24.319
	c-11.783,4.839-24.252,4.874-36.745,3.74c-10.217-0.927-22.673-0.859-32.277-4.823c-7.003-2.891-12.341-8.812-16.794-15.525
	c-2.052,13.541,21.12,19.792,34.371,23.37c2.834,0.602,5.707,1.067,8.599,1.399c2.892,0.333,5.802,0.533,8.717,0.604
	c3.498,0.086,7.002-0.013,10.489-0.289C85.922,57.221,111.922,55.221,117.175,33.894z"/>
</svg>
