<?xml version="1.0" encoding="UTF-8" standalone="no"?>
<!-- Created with Inkscape (http://www.inkscape.org/) -->
<svg xmlns:inkscape="http://www.inkscape.org/namespaces/inkscape" xmlns:rdf="http://www.w3.org/1999/02/22-rdf-syntax-ns#" xmlns="http://www.w3.org/2000/svg" xmlns:xlink="http://www.w3.org/1999/xlink" xmlns:ns1="http://sozi.baierouge.fr" xmlns:cc="http://creativecommons.org/ns#" xmlns:dc="http://purl.org/dc/elements/1.1/" xmlns:sodipodi="http://sodipodi.sourceforge.net/DTD/sodipodi-0.dtd" id="svg4660" sodipodi:docname="New document 8" viewBox="0 0 449.5 140.62" version="1.1" inkscape:version="0.48.2 r9819" viewbox="0 0 449.5 140.625">
  <title id="title4757">Pizza</title>
  <defs id="defs4662">
    <filter id="filter4126" color-interpolation-filters="sRGB" inkscape:collect="always">
      <feGaussianBlur id="feGaussianBlur4128" stdDeviation="1.5030532" inkscape:collect="always"/>
    </filter>
  </defs>
  <sodipodi:namedview id="base" bordercolor="#666666" inkscape:pageshadow="2" inkscape:window-y="225" fit-margin-left="0" pagecolor="#ffffff" fit-margin-top="0" inkscape:window-maximized="0" inkscape:zoom="0.35" inkscape:window-x="225" inkscape:window-height="634" showgrid="false" borderopacity="1.0" inkscape:current-layer="layer1" inkscape:cx="234.03709" inkscape:cy="41.750356" fit-margin-right="0" fit-margin-bottom="0" inkscape:window-width="1102" inkscape:pageopacity="0.0" inkscape:document-units="px"/>
  <g id="layer1" inkscape:label="Layer 1" inkscape:groupmode="layer" transform="translate(-140.96 -433.49)">
    <g id="g4567" transform="translate(-1075.4 -233.36)">
      <path id="path3330" sodipodi:rx="222.25598" sodipodi:ry="67.806908" style="stroke-linejoin:round;stroke:#000000;stroke-linecap:round;stroke-width:5;fill:#aa4400" sodipodi:type="arc" d="m1637.9 705.21c0 37.449-99.507 67.807-222.26 67.807s-222.26-30.358-222.26-67.807 99.507-67.807 222.26-67.807 222.26 30.358 222.26 67.807z" transform="translate(25.497 31.943)" sodipodi:cy="705.20947" sodipodi:cx="1415.6576"/>
      <path id="path3330-1" sodipodi:rx="222.25598" sodipodi:ry="67.806908" style="stroke-linejoin:round;filter:url(#filter4126);stroke:#750000;stroke-linecap:round;stroke-width:5;fill:#ffcc00" sodipodi:type="arc" d="m1637.9 705.21c0 37.449-99.507 67.807-222.26 67.807s-222.26-30.358-222.26-67.807 99.507-67.807 222.26-67.807 222.26 30.358 222.26 67.807z" transform="matrix(.88142 0 0 .77496 192.64 186.87)" sodipodi:cy="705.20947" sodipodi:cx="1415.6576"/>
      <path id="path4131" sodipodi:rx="15.068202" sodipodi:ry="9.0409212" style="stroke-linejoin:round;stroke:#000000;stroke-linecap:round;stroke-width:3;fill:#800000" sodipodi:type="arc" d="m1467.6 678.09c0 4.9932-6.7463 9.0409-15.068 9.0409-8.322 0-15.068-4.0478-15.068-9.0409 0-4.9932 6.7462-9.0409 15.068-9.0409 8.3219 0 15.068 4.0478 15.068 9.0409z" transform="translate(20.977 28.929)" sodipodi:cy="678.08667" sodipodi:cx="1452.5746"/>
      <path id="path4131-7" sodipodi:rx="15.068202" sodipodi:ry="9.0409212" style="stroke-linejoin:round;stroke:#000000;stroke-linecap:round;stroke-width:3;fill:#800000" sodipodi:type="arc" d="m1467.6 678.09c0 4.9932-6.7463 9.0409-15.068 9.0409-8.322 0-15.068-4.0478-15.068-9.0409 0-4.9932 6.7462-9.0409 15.068-9.0409 8.3219 0 15.068 4.0478 15.068 9.0409z" transform="translate(-28.748 25.916)" sodipodi:cy="678.08667" sodipodi:cx="1452.5746"/>
      <path id="path4131-4" sodipodi:rx="15.068202" sodipodi:ry="9.0409212" style="stroke-linejoin:round;stroke:#000000;stroke-linecap:round;stroke-width:3;fill:#800000" sodipodi:type="arc" d="m1467.6 678.09c0 4.9932-6.7463 9.0409-15.068 9.0409-8.322 0-15.068-4.0478-15.068-9.0409 0-4.9932 6.7462-9.0409 15.068-9.0409 8.3219 0 15.068 4.0478 15.068 9.0409z" transform="translate(-19.707 56.052)" sodipodi:cy="678.08667" sodipodi:cx="1452.5746"/>
      <path id="path4131-0" sodipodi:rx="15.068202" sodipodi:ry="9.0409212" style="stroke-linejoin:round;stroke:#000000;stroke-linecap:round;stroke-width:3;fill:#800000" sodipodi:type="arc" d="m1467.6 678.09c0 4.9932-6.7463 9.0409-15.068 9.0409-8.322 0-15.068-4.0478-15.068-9.0409 0-4.9932 6.7462-9.0409 15.068-9.0409 8.3219 0 15.068 4.0478 15.068 9.0409z" transform="translate(-70.939 48.518)" sodipodi:cy="678.08667" sodipodi:cx="1452.5746"/>
      <path id="path4131-9" sodipodi:rx="15.068202" sodipodi:ry="9.0409212" style="stroke-linejoin:round;stroke:#000000;stroke-linecap:round;stroke-width:3;fill:#800000" sodipodi:type="arc" d="m1467.6 678.09c0 4.9932-6.7463 9.0409-15.068 9.0409-8.322 0-15.068-4.0478-15.068-9.0409 0-4.9932 6.7462-9.0409 15.068-9.0409 8.3219 0 15.068 4.0478 15.068 9.0409z" transform="translate(-122.17 45.504)" sodipodi:cy="678.08667" sodipodi:cx="1452.5746"/>
      <path id="path4131-48" sodipodi:rx="15.068202" sodipodi:ry="9.0409212" style="stroke-linejoin:round;stroke:#000000;stroke-linecap:round;stroke-width:3;fill:#800000" sodipodi:type="arc" d="m1467.6 678.09c0 4.9932-6.7463 9.0409-15.068 9.0409-8.322 0-15.068-4.0478-15.068-9.0409 0-4.9932 6.7462-9.0409 15.068-9.0409 8.3219 0 15.068 4.0478 15.068 9.0409z" transform="translate(-102.58 74.134)" sodipodi:cy="678.08667" sodipodi:cx="1452.5746"/>
      <path id="path4131-8" sodipodi:rx="15.068202" sodipodi:ry="9.0409212" style="stroke-linejoin:round;stroke:#000000;stroke-linecap:round;stroke-width:3;fill:#800000" sodipodi:type="arc" d="m1467.6 678.09c0 4.9932-6.7463 9.0409-15.068 9.0409-8.322 0-15.068-4.0478-15.068-9.0409 0-4.9932 6.7462-9.0409 15.068-9.0409 8.3219 0 15.068 4.0478 15.068 9.0409z" transform="translate(-49.843 78.654)" sodipodi:cy="678.08667" sodipodi:cx="1452.5746"/>
      <path id="path4131-2" sodipodi:rx="15.068202" sodipodi:ry="9.0409212" style="stroke-linejoin:round;stroke:#000000;stroke-linecap:round;stroke-width:3;fill:#800000" sodipodi:type="arc" d="m1467.6 678.09c0 4.9932-6.7463 9.0409-15.068 9.0409-8.322 0-15.068-4.0478-15.068-9.0409 0-4.9932 6.7462-9.0409 15.068-9.0409 8.3219 0 15.068 4.0478 15.068 9.0409z" transform="translate(14.95 78.654)" sodipodi:cy="678.08667" sodipodi:cx="1452.5746"/>
      <path id="path4131-45" sodipodi:rx="15.068202" sodipodi:ry="9.0409212" style="stroke-linejoin:round;stroke:#000000;stroke-linecap:round;stroke-width:3;fill:#800000" sodipodi:type="arc" d="m1467.6 678.09c0 4.9932-6.7463 9.0409-15.068 9.0409-8.322 0-15.068-4.0478-15.068-9.0409 0-4.9932 6.7462-9.0409 15.068-9.0409 8.3219 0 15.068 4.0478 15.068 9.0409z" transform="translate(43.579 53.039)" sodipodi:cy="678.08667" sodipodi:cx="1452.5746"/>
      <path id="path4131-5" sodipodi:rx="15.068202" sodipodi:ry="9.0409212" style="stroke-linejoin:round;stroke:#000000;stroke-linecap:round;stroke-width:3;fill:#800000" sodipodi:type="arc" d="m1467.6 678.09c0 4.9932-6.7463 9.0409-15.068 9.0409-8.322 0-15.068-4.0478-15.068-9.0409 0-4.9932 6.7462-9.0409 15.068-9.0409 8.3219 0 15.068 4.0478 15.068 9.0409z" transform="translate(82.757 37.97)" sodipodi:cy="678.08667" sodipodi:cx="1452.5746"/>
      <path id="path4131-1" sodipodi:rx="15.068202" sodipodi:ry="9.0409212" style="stroke-linejoin:round;stroke:#000000;stroke-linecap:round;stroke-width:3;fill:#800000" sodipodi:type="arc" d="m1467.6 678.09c0 4.9932-6.7463 9.0409-15.068 9.0409-8.322 0-15.068-4.0478-15.068-9.0409 0-4.9932 6.7462-9.0409 15.068-9.0409 8.3219 0 15.068 4.0478 15.068 9.0409z" transform="translate(141.52 47.011)" sodipodi:cy="678.08667" sodipodi:cx="1452.5746"/>
      <path id="path4131-71" sodipodi:rx="15.068202" sodipodi:ry="9.0409212" style="stroke-linejoin:round;stroke:#000000;stroke-linecap:round;stroke-width:3;fill:#800000" sodipodi:type="arc" d="m1467.6 678.09c0 4.9932-6.7463 9.0409-15.068 9.0409-8.322 0-15.068-4.0478-15.068-9.0409 0-4.9932 6.7462-9.0409 15.068-9.0409 8.3219 0 15.068 4.0478 15.068 9.0409z" transform="translate(76.729 69.614)" sodipodi:cy="678.08667" sodipodi:cx="1452.5746"/>
      <path id="path4131-15" sodipodi:rx="15.068202" sodipodi:ry="9.0409212" style="stroke-linejoin:round;stroke:#000000;stroke-linecap:round;stroke-width:3;fill:#800000" sodipodi:type="arc" d="m1467.6 678.09c0 4.9932-6.7463 9.0409-15.068 9.0409-8.322 0-15.068-4.0478-15.068-9.0409 0-4.9932 6.7462-9.0409 15.068-9.0409 8.3219 0 15.068 4.0478 15.068 9.0409z" transform="translate(-81.487 22.902)" sodipodi:cy="678.08667" sodipodi:cx="1452.5746"/>
      <path id="path4131-27" sodipodi:rx="15.068202" sodipodi:ry="9.0409212" style="stroke-linejoin:round;stroke:#000000;stroke-linecap:round;stroke-width:3;fill:#800000" sodipodi:type="arc" d="m1467.6 678.09c0 4.9932-6.7463 9.0409-15.068 9.0409-8.322 0-15.068-4.0478-15.068-9.0409 0-4.9932 6.7462-9.0409 15.068-9.0409 8.3219 0 15.068 4.0478 15.068 9.0409z" transform="translate(-164.36 62.079)" sodipodi:cy="678.08667" sodipodi:cx="1452.5746"/>
      <path id="path4131-6" sodipodi:rx="15.068202" sodipodi:ry="9.0409212" style="stroke-linejoin:round;stroke:#000000;stroke-linecap:round;stroke-width:3;fill:#800000" sodipodi:type="arc" d="m1467.6 678.09c0 4.9932-6.7463 9.0409-15.068 9.0409-8.322 0-15.068-4.0478-15.068-9.0409 0-4.9932 6.7462-9.0409 15.068-9.0409 8.3219 0 15.068 4.0478 15.068 9.0409z" transform="translate(115.91 68.107)" sodipodi:cy="678.08667" sodipodi:cx="1452.5746"/>
      <path id="path4346" d="m1225.6 740.65s3.3285 8.5606 12.402 16.183c7.5807 6.3686 18.346 12.453 33.708 17.481 27.326 8.9439 47.731 13.92 81.005 18.574 34.348 4.8043 77.618 6.0125 88.094 6.0414s47.078-1.0708 83.918-5.28c28.929-3.3052 62.216-10.72 81.271-17.517 20.112-7.1747 31.85-14.144 39.647-20.505 10.748-8.7672 11.236-15.041 11.236-15.041" sodipodi:nodetypes="cssszsssc" style="stroke:#7e3400;stroke-linecap:round;stroke-width:8;fill:none" inkscape:connector-curvature="0"/>
      <rect id="rect4403" style="fill:#165016" rx="0" ry="9.5964" height="5.1778" width="4.9114" y="698.28" x="1336.6"/>
      <rect id="rect4403-1" ry="9.5964" style="fill:#165016" rx="0" transform="rotate(-29.285)" height="5.1778" width="4.9114" y="1285" x="830.07"/>
      <rect id="rect4403-2" style="fill:#165016" rx="0" ry="9.5964" height="5.1778" width="4.9114" y="740.63" x="1376.4"/>
      <rect id="rect4403-3" ry="9.5964" style="fill:#165016" rx="0" transform="matrix(.90922 .41631 -.41631 .90922 0 0)" height="5.1778" width="4.9114" y="125.32" x="1503.5"/>
      <rect id="rect4403-34" ry="9.5964" style="fill:#165016" rx="0" transform="rotate(23.117)" height="5.1778" width="4.9114" y="162.03" x="1559.2"/>
      <rect id="rect4403-11" ry="9.5964" style="fill:#165016" rx="0" transform="rotate(17.279)" height="5.1778" width="4.9114" y="275.67" x="1556.8"/>
      <rect id="rect4403-38" style="fill:#165016" rx="0" ry="9.5964" height="5.1778" width="4.9114" y="696.15" x="1395.3"/>
      <rect id="rect4403-7" ry="9.5964" style="fill:#165016" rx="0" transform="matrix(.89030 .45537 -.45537 .89030 0 0)" height="5.1778" width="4.9114" y="-43.352" x="1602.3"/>
      <rect id="rect4403-4" ry="9.5964" style="fill:#165016" rx="0" transform="rotate(-38.753)" height="5.1778" width="4.9114" y="1463.8" x="681.83"/>
      <rect id="rect4403-27" style="fill:#165016" rx="0" ry="9.5964" height="5.1778" width="4.9114" y="732.11" x="1469.9"/>
      <rect id="rect4403-79" style="fill:#165016" rx="0" ry="9.5964" height="5.1778" width="4.9114" y="759.28" x="1432.3"/>
      <rect id="rect4403-31" ry="9.5964" style="fill:#165016" rx="0" transform="matrix(.90922 -.41631 .41631 .90922 0 0)" height="5.1778" width="4.9114" y="1311.6" x="1045.9"/>
      <rect id="rect4403-9" ry="9.5964" style="fill:#165016" rx="0" transform="matrix(.84135 .54048 -.54048 .84135 0 0)" height="5.1778" width="4.9114" y="-224.13" x="1649.5"/>
      <rect id="rect4403-8" style="fill:#165016" rx="0" ry="9.5964" height="5.1778" width="4.9114" y="691.09" x="1495.2"/>
      <rect id="rect4403-6" ry="9.5964" style="fill:#165016" rx="0" transform="rotate(-22.691)" height="5.1778" width="4.9114" y="1258.6" x="1167.4"/>
      <rect id="rect4403-5" style="fill:#165016" rx="0" ry="9.5964" height="5.1778" width="4.9114" y="730.51" x="1551.7"/>
      <rect id="rect4403-0" ry="9.5964" style="fill:#165016" rx="0" transform="matrix(.89030 .45537 -.45537 .89030 0 0)" height="5.1778" width="4.9114" y="-24.637" x="1718.4"/>
      <rect id="rect4403-28" style="fill:#165016" rx="0" ry="9.5964" height="5.1778" width="4.9114" y="771" x="1482.4"/>
      <rect id="rect4403-60" ry="9.5964" style="fill:#165016" rx="0" transform="rotate(36.995)" height="5.1778" width="4.9114" y="-216.41" x="1463.8"/>
      <rect id="rect4403-60-2" ry="9.5964" style="fill:#165016" rx="0" transform="rotate(36.995)" height="5.1778" width="4.9114" y="-185.79" x="1445.1"/>
      <rect id="rect4403-60-4" ry="9.5964" style="fill:#165016" rx="0" transform="rotate(36.995)" height="5.1778" width="4.9114" y="-372.65" x="1726.9"/>
    </g>
  </g>
  <metadata>
    <rdf:RDF>
      <cc:Work>
        <dc:format>image/svg+xml</dc:format>
        <dc:type rdf:resource="http://purl.org/dc/dcmitype/StillImage"/>
        <cc:license rdf:resource="http://creativecommons.org/licenses/publicdomain/"/>
        <dc:publisher>
          <cc:Agent rdf:about="http://openclipart.org/">
            <dc:title>Openclipart</dc:title>
          </cc:Agent>
        </dc:publisher>
      </cc:Work>
      <cc:License rdf:about="http://creativecommons.org/licenses/publicdomain/">
        <cc:permits rdf:resource="http://creativecommons.org/ns#Reproduction"/>
        <cc:permits rdf:resource="http://creativecommons.org/ns#Distribution"/>
        <cc:permits rdf:resource="http://creativecommons.org/ns#DerivativeWorks"/>
      </cc:License>
    </rdf:RDF>
  </metadata>
</svg>
